<?xml version="1.0" standalone="no"?>
<!DOCTYPE svg PUBLIC "-//W3C//DTD SVG 20010904//EN"
 "http://www.w3.org/TR/2001/REC-SVG-20010904/DTD/svg10.dtd">
<svg version="1.0" xmlns="http://www.w3.org/2000/svg"
 width="512.000000pt" height="512.000000pt" viewBox="0 0 512.000000 512.000000"
 preserveAspectRatio="xMidYMid meet">
<metadata>
Created by potrace 1.14, written by Peter Selinger 2001-2017
</metadata>
<g transform="translate(0.000000,512.000000) scale(0.100000,-0.100000)"
fill="#000000" stroke="none">
<path d="M0 5012 l0 -107 53 -41 c179 -141 236 -201 90 -96 -37 27 -85 59
-105 71 l-38 23 0 -59 c0 -48 4 -60 21 -71 19 -12 20 -11 14 7 -6 21 9 30 20
11 3 -5 43 -34 88 -64 45 -31 111 -76 147 -101 36 -25 72 -50 80 -55 13 -8 13
-11 -2 -26 -16 -16 -19 -15 -55 12 -42 32 -59 43 -117 74 -44 24 -128 79 -169
110 l-27 22 0 -70 0 -70 78 -44 c42 -24 107 -59 144 -78 38 -19 68 -38 68 -41
0 -3 -9 -15 -19 -26 l-20 -21 -122 60 c-67 32 -124 56 -127 53 -7 -7 -11 -4
113 -75 130 -74 122 -68 103 -75 -8 -3 -52 12 -97 34 -136 66 -121 91 -121
-202 l0 -254 38 -6 c47 -7 84 -16 86 -19 0 -2 7 -14 14 -26 7 -13 11 -26 8
-29 -2 -3 -29 2 -59 11 -92 27 -87 35 -86 -123 l0 -139 157 -6 c86 -3 162 -6
169 -7 7 -1 27 -17 45 -36 l32 -33 -30 0 c-16 0 -84 7 -149 15 -154 19 -225
20 -225 1 0 -14 14 -15 300 -32 58 -4 111 -12 119 -18 18 -14 64 -87 58 -92
-3 -3 -42 0 -88 6 -46 5 -152 10 -236 10 l-153 0 0 -42 0 -43 107 3 c60 1 173
9 253 17 136 15 146 14 157 -2 7 -9 13 -20 13 -25 0 -4 -62 -8 -137 -8 -231 0
-393 -11 -393 -27 0 -8 12 -13 33 -13 118 -2 347 3 425 8 l92 7 25 -35 c13
-19 29 -47 36 -62 7 -16 16 -28 21 -28 4 0 7 -3 6 -7 -1 -5 6 -22 15 -40 9
-18 17 -36 17 -41 0 -5 -51 -14 -112 -19 -62 -6 -123 -14 -135 -18 -14 -4 -23
-3 -23 3 0 6 10 13 23 15 41 9 -312 -17 -390 -29 l-33 -5 0 -198 0 -199 68 24
c37 14 81 30 97 38 17 7 60 26 97 42 70 30 89 51 38 41 -17 -4 -30 -2 -30 3 0
6 11 10 24 10 14 0 27 4 30 9 3 4 24 11 47 15 23 4 47 10 53 14 26 17 312 99
319 92 5 -4 19 -31 33 -59 l24 -52 -46 -19 c-25 -11 -50 -20 -56 -20 -5 0 -24
-6 -41 -14 -18 -8 -63 -26 -102 -39 -70 -25 -242 -91 -280 -107 -11 -5 -51
-23 -88 -39 -38 -17 -71 -31 -75 -31 -19 0 -112 -55 -112 -67 0 -7 2 -13 5
-13 8 0 273 98 309 114 17 8 78 34 136 59 193 82 330 144 345 157 12 10 16 9
21 -5 4 -9 3 -20 -2 -24 -5 -4 -65 -31 -134 -58 -130 -53 -216 -91 -337 -149
-40 -19 -82 -39 -95 -44 -13 -6 -72 -36 -133 -68 l-110 -57 -3 -102 c-3 -97
-2 -103 17 -103 11 0 23 5 26 11 4 5 17 15 28 20 12 5 63 36 112 69 50 33 142
91 205 129 63 39 165 102 225 140 185 118 226 141 235 136 9 -6 30 -70 30 -92
0 -7 -5 -13 -11 -13 -10 0 -123 -63 -179 -100 -8 -6 -24 -14 -35 -20 -11 -5
-51 -29 -88 -52 -37 -24 -136 -85 -220 -137 -199 -123 -259 -163 -254 -168 3
-2 28 10 56 27 29 16 53 30 55 30 2 0 55 30 117 66 63 36 150 86 194 111 104
60 335 202 356 220 21 18 29 16 29 -5 0 -11 9 -45 19 -76 19 -57 19 -58 0 -74
-10 -9 -19 -21 -19 -28 0 -6 -11 -16 -25 -22 -13 -6 -57 -33 -97 -60 -95 -63
-340 -230 -400 -272 -26 -19 -50 -31 -53 -28 -4 3 56 51 132 107 76 55 157
115 180 133 23 18 65 51 95 74 29 23 59 48 67 57 7 10 20 17 27 17 8 0 14 5
14 10 0 6 -2 10 -5 10 -7 0 -132 -78 -170 -106 -28 -21 -205 -116 -205 -111 0
2 16 20 35 42 20 21 33 40 31 42 -8 8 -355 -197 -463 -274 l-63 -45 0 -199 c0
-190 1 -198 18 -181 67 70 101 113 97 124 -5 12 169 138 190 138 4 0 -25 -30
-66 -68 -125 -114 -199 -189 -156 -157 54 38 56 25 5 -24 -24 -22 -38 -41 -32
-41 6 0 68 37 137 83 69 46 124 80 121 76 -2 -5 -57 -59 -120 -121 -107 -104
-158 -164 -122 -142 32 20 228 181 275 227 29 28 53 47 53 42 0 -13 -106 -132
-317 -358 -65 -69 -83 -95 -83 -118 l0 -29 28 17 27 18 -27 -37 c-16 -20 -28
-46 -28 -58 0 -20 5 -18 50 20 28 24 53 41 55 38 3 -2 -20 -29 -50 -58 l-55
-54 0 -79 0 -79 122 113 c67 63 164 157 216 209 70 69 88 84 70 55 -14 -22
-43 -76 -64 -120 -21 -44 -42 -82 -45 -85 -15 -12 -59 -124 -59 -150 0 -17 -4
-30 -8 -30 -4 0 -35 -35 -69 -77 -34 -43 -71 -89 -83 -103 -63 -71 -80 -107
-80 -166 l0 -58 51 49 c28 28 80 87 116 132 37 46 68 83 71 83 2 0 1 -12 -3
-27 -6 -27 -6 -27 14 -9 40 37 28 10 -36 -79 -36 -49 -71 -103 -79 -120 -15
-30 -15 -30 16 5 17 19 63 78 102 130 85 113 128 164 128 152 0 -5 -17 -33
-38 -63 -45 -63 -90 -139 -75 -124 15 14 121 149 178 226 33 45 54 65 71 66
13 1 24 0 24 -2 0 -3 -17 -31 -37 -62 -21 -32 -40 -63 -43 -68 -15 -31 -205
-343 -218 -358 -8 -9 -13 -20 -10 -23 3 -3 29 27 57 65 28 39 53 71 56 71 4 0
-49 -95 -65 -115 -4 -5 -35 -64 -69 -130 -56 -108 -58 -116 -29 -84 18 19 40
38 49 41 22 8 138 141 186 213 59 87 153 278 153 310 0 12 20 60 42 99 8 15 7
18 -6 13 -9 -4 -16 -2 -16 3 0 6 36 10 83 9 59 0 76 -3 59 -9 -30 -12 -263
-374 -374 -580 -44 -81 -74 -135 -100 -178 -11 -18 -18 -35 -15 -38 6 -6 78
99 141 204 39 64 63 78 34 19 -39 -79 -57 -121 -53 -126 3 -2 6 -2 8 0 2 2 35
47 74 99 39 52 100 140 136 195 95 144 180 263 194 269 8 3 9 -4 3 -25 -18
-60 31 -7 70 76 5 11 18 34 30 50 20 28 21 28 14 5 -4 -14 -17 -49 -30 -79
-27 -61 -29 -68 -11 -49 15 17 31 42 58 91 11 22 23 36 26 33 4 -3 -18 -45
-47 -93 -73 -120 -187 -347 -235 -468 -21 -55 -45 -111 -52 -125 -18 -36 -17
-56 2 -40 8 7 15 16 15 21 0 5 28 55 61 111 98 164 249 476 249 516 0 9 6 12
16 8 12 -4 14 -1 9 14 -3 10 1 33 10 51 9 17 15 39 12 49 -3 12 0 17 8 13 10
-3 11 -12 3 -36 -6 -18 -15 -36 -19 -42 -12 -12 -11 -35 1 -35 6 0 10 7 10 15
0 8 5 15 10 15 6 0 10 7 10 17 0 9 3 14 6 10 4 -3 2 -20 -4 -36 -17 -49 1 -36
44 30 44 69 58 57 21 -19 -26 -53 -46 -119 -28 -92 12 18 26 7 15 -12 -10 -16
-54 -138 -100 -278 -19 -58 -39 -114 -44 -125 -17 -39 -30 -88 -25 -93 7 -7 2
-16 99 183 86 177 96 195 124 245 18 33 11 4 -18 -70 -27 -70 -77 -223 -86
-264 -3 -17 -10 -35 -14 -41 -4 -5 -10 -27 -13 -49 -6 -35 -5 -37 8 -20 8 11
15 25 15 33 0 8 3 12 6 9 3 -4 -12 -58 -34 -122 -40 -114 -40 -116 -18 -116
17 0 29 17 63 89 23 48 45 100 49 115 7 27 24 46 24 25 0 -13 -29 -104 -43
-136 -6 -13 -7 -26 -4 -29 4 -4 11 6 17 22 6 16 14 38 19 49 5 11 12 27 15 35
3 8 3 -7 -1 -35 -3 -27 -10 -61 -15 -74 -5 -16 -5 -28 2 -35 7 -7 10 -7 10 1
0 7 27 68 60 138 33 70 60 128 60 130 0 3 11 28 24 57 57 129 136 377 136 430
0 39 20 26 21 -15 1 -25 3 -27 6 -9 7 38 26 19 30 -31 4 -42 -4 -89 -37 -237
-13 -59 -42 -194 -47 -223 -3 -16 -1 -27 6 -27 6 0 11 8 11 18 0 9 11 46 24
82 13 36 26 72 28 80 3 8 15 44 26 79 10 35 22 58 26 52 4 -6 4 -15 1 -21 -13
-21 -75 -311 -75 -350 0 -8 7 -2 15 14 8 15 15 35 15 43 0 13 3 13 15 3 13
-11 15 -8 16 16 1 39 33 112 43 96 4 -7 2 -12 -3 -12 -6 0 -11 -11 -11 -25 0
-14 5 -25 10 -25 6 0 10 7 10 16 0 8 12 60 27 115 17 65 31 99 40 99 8 0 12
-4 8 -10 -16 -26 -65 -260 -80 -383 -4 -31 -10 -45 -17 -41 -8 5 -9 1 -5 -10
4 -10 7 -31 7 -47 0 -44 16 -35 24 13 4 23 11 47 15 53 5 5 11 17 14 25 2 8 3
2 1 -14 -3 -24 -2 -27 11 -16 8 7 15 20 15 29 0 10 12 46 26 82 32 79 84 239
84 257 0 8 6 12 13 9 23 -8 -4 -223 -31 -243 -12 -9 -13 -30 -9 -115 4 -57 6
-105 7 -106 0 -2 9 -3 20 -3 20 0 21 4 14 99 l-7 99 28 23 c15 13 33 30 41 36
7 7 17 13 22 13 5 0 15 7 22 15 9 11 23 14 44 10 24 -4 26 -3 11 4 -18 8 -16
11 20 27 63 28 82 27 88 -4 2 -15 8 -36 12 -46 9 -20 0 -20 -62 -1 -17 5 -25
3 -29 -10 -10 -24 11 -35 196 -105 47 -17 109 -43 138 -56 29 -13 59 -24 67
-24 7 0 16 -4 19 -9 3 -4 31 -11 62 -15 31 -3 62 -13 71 -21 8 -8 23 -15 33
-15 10 0 22 -4 25 -10 4 -6 56 -10 122 -10 64 0 114 2 112 4 -2 2 -46 9 -97
15 -68 7 -108 18 -150 39 -60 31 -59 29 -83 142 -16 75 -34 115 -62 133 -13 8
-68 29 -123 47 -54 18 -103 36 -109 41 -5 4 -39 13 -75 19 -57 10 -114 37
-131 63 -10 14 -29 -2 -29 -24 0 -10 -7 -19 -15 -19 -8 0 -15 4 -15 9 0 13
-90 111 -102 111 -7 0 -8 -17 -4 -47 5 -41 4 -46 -8 -33 -21 22 -56 92 -56
112 0 9 -4 20 -10 23 -5 3 -10 28 -10 54 0 40 -4 50 -24 60 -13 8 -29 11 -34
7 -17 -10 -44 -105 -40 -137 7 -48 -8 -33 -27 29 -24 75 -24 231 -1 267 23 35
20 45 -15 45 -25 0 -32 -6 -44 -34 -8 -19 -19 -37 -25 -41 -16 -10 -12 114 5
171 15 53 73 129 105 139 26 8 14 35 -16 35 -13 0 -35 -5 -49 -12 -43 -19 -40
-1 6 44 24 24 57 70 72 103 16 33 33 67 38 75 35 57 49 106 49 174 0 40 -4 76
-9 81 -5 6 -12 21 -16 34 -6 21 -5 23 14 18 28 -7 37 10 17 32 -20 22 -20 31
-1 31 8 0 15 -4 15 -10 0 -5 7 -10 16 -10 13 0 15 6 10 32 -4 18 -10 67 -13
108 l-5 76 84 43 c45 25 100 55 121 68 22 14 41 22 44 20 2 -3 -3 -31 -12 -63
-44 -163 -22 -533 36 -615 20 -29 21 -29 122 -28 56 1 113 5 127 9 28 9 33 8
-90 16 -90 5 -131 15 -141 35 -17 32 -39 160 -44 259 -6 106 2 218 25 342 l13
68 76 39 c42 21 119 61 171 87 183 94 179 93 312 52 59 -18 68 -24 77 -52 15
-43 10 -306 -5 -306 -7 0 -15 8 -18 17 -14 34 -38 -25 -43 -105 -7 -110 20
-164 67 -134 15 9 19 6 24 -20 11 -54 6 -162 -9 -188 -9 -17 -27 -28 -56 -35
-61 -15 -62 -34 -2 -28 26 3 55 9 64 14 16 8 39 78 39 118 0 23 47 61 155 126
44 26 98 65 121 87 28 27 46 37 58 32 26 -10 87 23 123 68 l32 39 7 -28 c10
-42 39 -95 64 -118 21 -19 22 -19 35 -1 8 11 12 30 8 47 -3 18 -1 29 6 29 6 0
11 -6 11 -12 1 -7 20 -32 43 -54 43 -43 108 -74 153 -74 l25 0 -28 -24 c-25
-21 -28 -31 -31 -100 -6 -114 18 -163 121 -246 44 -36 85 -67 91 -69 6 -2 30
-12 53 -22 23 -11 67 -25 97 -33 31 -8 60 -18 66 -21 5 -3 40 -8 77 -11 63 -5
74 -2 138 29 114 56 205 167 205 251 0 38 18 86 32 86 12 0 76 -103 84 -136 3
-16 13 -49 21 -74 17 -53 11 -149 -14 -220 -34 -95 -156 -223 -234 -246 -43
-13 -129 -5 -153 15 -6 5 -26 12 -43 16 -18 3 -33 8 -33 10 0 1 9 38 20 81 11
44 20 87 20 97 0 35 -16 16 -35 -40 -42 -126 -52 -141 -113 -171 -31 -15 -77
-34 -102 -41 -25 -7 -101 -31 -168 -53 -123 -39 -125 -40 -203 -29 -138 18
-326 124 -431 242 -34 39 -76 78 -92 86 -17 9 -50 34 -74 57 -24 22 -50 45
-58 49 -8 5 -12 12 -9 17 7 11 -52 3 -139 -21 -65 -17 -136 -59 -136 -80 0
-13 11 -11 29 5 9 8 28 18 43 21 24 6 28 4 28 -15 0 -36 58 -214 97 -298 19
-42 50 -98 69 -125 19 -26 34 -50 34 -53 0 -8 91 -133 145 -198 84 -102 157
-173 207 -201 50 -28 59 -30 163 -29 115 0 210 20 253 52 13 10 28 39 37 75 8
31 35 108 60 171 25 63 45 125 45 138 0 13 4 28 9 34 5 5 13 29 18 54 l9 45
65 11 c49 8 74 18 95 38 50 49 81 57 134 36 25 -10 46 -24 48 -33 4 -18 -50
-119 -66 -125 -8 -2 -12 11 -12 42 0 30 -4 46 -12 47 -84 8 -146 -2 -73 -11
39 -5 40 -7 49 -53 8 -39 13 -47 31 -47 30 0 69 41 89 95 17 43 20 45 56 45
l39 0 11 -55 c11 -55 7 -95 -11 -95 -5 0 -9 7 -9 15 0 8 -6 15 -14 15 -14 0
-26 -42 -26 -90 0 -36 -31 -75 -53 -67 -12 4 -15 14 -10 40 3 19 1 37 -5 41
-12 7 -25 -10 -30 -39 -1 -11 -14 -37 -27 -57 -22 -33 -31 -38 -62 -38 -34 0
-47 -10 -155 -120 -71 -72 -142 -133 -179 -155 -33 -19 -62 -35 -64 -35 -3 0
-28 -11 -57 -25 -86 -39 -167 -55 -290 -56 -102 -1 -118 1 -159 23 -26 14 -65
28 -88 31 -24 3 -59 16 -79 30 -45 29 -112 44 -111 25 1 -22 101 -99 187 -143
46 -24 91 -50 100 -58 30 -27 145 -59 227 -64 75 -4 81 -3 98 19 76 101 97
112 97 54 0 -30 -5 -36 -42 -54 l-43 -21 98 -1 c90 0 97 1 97 20 0 10 -7 23
-16 28 -13 7 -8 15 26 46 52 47 52 80 0 41 -59 -45 -70 -49 -70 -25 0 11 5 20
10 20 6 0 35 18 64 40 29 22 60 40 68 40 29 0 50 -49 55 -131 6 -76 7 -79 30
-79 24 0 25 2 20 53 -2 28 -6 59 -9 69 -9 37 -43 87 -67 98 l-26 12 25 17 c28
18 100 92 100 103 0 12 86 98 97 98 6 0 20 -15 31 -32 50 -81 122 -181 122
-170 0 11 -51 126 -91 202 -18 36 -18 36 4 37 17 1 36 -20 90 -103 38 -58 71
-103 74 -101 2 3 -3 19 -12 36 -9 17 -11 31 -5 31 5 0 10 -5 10 -10 0 -6 11
-23 25 -38 36 -38 31 -22 -15 53 -22 36 -40 67 -40 70 0 3 -14 27 -31 55 -30
49 -31 52 -14 70 19 21 41 28 30 10 -3 -5 -2 -10 3 -10 5 0 15 -12 22 -27 8
-18 14 -23 17 -15 3 8 1 18 -5 24 -7 7 2 22 28 47 32 30 38 42 36 74 -1 32 2
37 20 37 11 0 28 8 36 18 18 21 23 84 8 111 -6 12 -8 21 -6 21 3 0 15 -19 27
-43 34 -66 122 -178 202 -255 76 -75 98 -79 50 -9 -51 76 -44 83 16 17 63 -68
82 -75 31 -10 -39 49 -39 62 0 25 42 -40 38 -24 -15 61 -25 39 -45 75 -45 78
0 3 -33 50 -74 103 -63 84 -71 99 -58 109 13 9 28 1 84 -47 71 -61 92 -72 81
-41 -3 9 47 -37 112 -103 106 -109 106 -93 1 25 -175 194 -206 234 -194 246 4
3 42 -22 85 -58 99 -81 193 -150 193 -142 0 3 -21 33 -46 66 -25 33 -43 63
-39 66 3 3 29 -16 57 -44 29 -27 55 -51 58 -54 3 -3 29 -27 58 -55 58 -55 69
-55 21 0 -49 55 -30 49 36 -11 69 -63 122 -104 110 -85 -8 14 -24 31 -199 220
-47 51 -85 96 -82 98 2 3 33 -19 68 -49 86 -73 278 -212 284 -205 3 2 -1 11
-8 18 -7 8 -45 52 -84 99 -121 144 -354 370 -382 370 -5 0 -13 7 -16 16 -8 20
-8 54 0 54 3 0 38 -26 77 -58 63 -51 193 -150 252 -191 l20 -15 -20 24 c-11
13 -57 59 -102 103 -46 44 -83 84 -83 88 0 5 34 -14 76 -41 42 -27 80 -47 85
-44 5 3 18 0 30 -6 31 -17 33 -6 4 29 -32 37 -24 40 19 8 38 -29 195 -127 204
-127 3 0 13 -7 23 -16 10 -9 23 -14 29 -12 25 8 -298 303 -459 418 -57 41
-195 152 -406 329 -44 37 -106 87 -137 110 -32 24 -58 47 -58 52 0 12 27 11
35 -1 3 -5 45 -35 92 -67 129 -86 127 -85 173 -125 44 -39 42 -53 -3 -18 -28
22 -46 27 -25 8 87 -83 559 -435 746 -557 62 -41 16 5 -73 72 -89 68 -111 87
-98 87 5 0 48 -27 97 -60 141 -97 136 -94 136 -77 0 12 -347 286 -430 339 -14
9 -74 60 -135 113 -60 53 -154 131 -207 173 -53 43 -94 78 -89 80 4 1 45 -18
90 -43 45 -26 86 -45 91 -43 5 2 -18 23 -52 48 -33 24 -56 46 -51 47 12 4 340
-162 417 -211 31 -20 59 -36 61 -36 3 0 64 -34 136 -76 72 -41 135 -74 140
-72 8 3 -258 186 -286 197 -5 2 -12 7 -15 11 -6 7 -147 92 -225 136 -73 40
-85 48 -85 56 0 4 72 -29 160 -73 89 -45 163 -79 166 -77 2 3 -41 36 -96 73
-55 37 -99 70 -96 72 2 3 78 -31 168 -75 207 -102 316 -152 328 -152 18 0 10
19 -10 25 -11 4 -58 32 -103 62 -105 71 -385 243 -396 243 -5 0 -14 7 -21 15
-21 25 -2 18 129 -52 69 -38 137 -73 151 -79 102 -45 130 -61 170 -95 97 -84
90 -81 90 -36 0 23 -8 40 -27 58 -66 61 -151 185 -173 251 -18 52 -18 53 2 71
l21 18 -24 17 c-13 9 -29 17 -36 18 -30 5 -160 74 -185 98 -55 56 -95 182 -83
262 3 24 21 64 38 90 27 40 41 49 92 65 72 23 112 23 185 4 77 -20 130 -44
162 -74 l28 -24 -3 123 -2 124 -35 9 c-19 4 -55 12 -79 18 -70 14 -111 32
-111 46 0 16 -7 16 115 -2 55 -8 103 -15 108 -15 4 0 7 20 7 44 l0 43 -92 14
c-51 7 -85 15 -75 17 11 2 17 11 15 20 -2 12 -18 19 -53 23 -33 4 -6 6 78 7
l127 2 0 24 c0 22 -6 26 -47 32 -78 11 -85 23 -15 24 l62 0 0 185 0 185 -112
-6 c-111 -5 -254 -23 -393 -49 l-70 -13 54 -1 c30 -1 51 -4 47 -8 -9 -9 -253
-42 -318 -42 -28 -1 -48 -6 -48 -12 0 -7 23 -10 63 -9 89 3 109 0 67 -11 -36
-10 -80 -14 -215 -24 -131 -9 -345 -38 -345 -47 0 -4 35 -8 78 -9 161 -2 -68
-27 -263 -29 -100 -1 -63 -16 75 -30 141 -15 227 -26 305 -39 33 -6 103 -17
155 -25 88 -14 90 -15 25 -10 -158 10 -544 16 -571 9 -25 -7 -19 -10 46 -21
160 -26 196 -33 230 -43 19 -6 51 -11 72 -11 43 0 68 -8 68 -23 0 -11 -231 -3
-335 12 -87 13 -241 22 -190 11 133 -28 252 -49 374 -67 38 -5 35 -15 -6 -19
-42 -4 -129 -12 -223 -20 -47 -4 -87 -9 -90 -9 -3 -1 -18 -5 -33 -10 -15 -4
-30 -5 -32 -3 -4 4 -55 186 -62 223 -2 11 -6 37 -10 59 -3 21 -12 50 -19 64
-7 15 -10 29 -6 32 5 3 8 20 8 39 -1 41 -37 37 374 45 309 7 618 27 705 46 22
5 57 10 77 10 20 0 40 5 43 10 3 6 22 10 41 10 20 0 44 5 54 10 15 8 253 27
373 30 4 0 7 11 7 25 0 15 -5 23 -12 20 -7 -3 -71 -12 -143 -20 -125 -14 -286
-37 -390 -55 -27 -5 -61 -9 -75 -9 -36 0 38 24 120 39 161 30 160 32 -20 30
-251 -2 -528 -25 -790 -64 -88 -14 -311 -59 -353 -72 -9 -3 -19 0 -22 8 -4 10
-15 227 -15 286 0 50 -1 76 -6 140 -7 84 -3 92 64 117 26 10 132 60 236 111
104 52 190 94 192 94 13 0 0 -18 -23 -32 -17 -11 -22 -18 -13 -18 9 0 21 5 28
12 7 7 12 8 12 2 0 -12 -46 -41 -165 -104 -55 -28 -104 -56 -110 -61 -12 -12
18 -12 30 0 6 5 48 25 95 46 47 21 103 46 124 56 22 10 42 17 44 14 8 -7 6 -8
-107 -64 -57 -29 -101 -55 -98 -57 3 -3 13 -1 24 5 47 25 133 53 147 48 21 -8
20 -23 -1 -31 -10 -3 -37 -17 -61 -30 -24 -14 -53 -28 -64 -32 -12 -3 -67 -28
-123 -55 -57 -27 -107 -49 -113 -49 -5 0 -16 -8 -23 -17 -12 -15 -12 -16 6 -9
11 4 52 19 90 33 39 14 79 29 90 33 31 13 157 58 185 66 14 4 90 35 170 69
208 89 243 104 263 116 11 6 21 8 23 6 6 -6 -50 -38 -116 -66 -30 -13 -102
-46 -160 -73 -58 -28 -116 -55 -130 -61 -42 -17 3 -21 58 -4 26 8 92 27 147
42 55 15 141 40 190 56 135 44 146 47 200 53 49 6 50 6 20 -9 -16 -8 -38 -14
-48 -15 -22 0 -115 -28 -139 -41 -10 -5 -24 -9 -32 -9 -22 0 -224 -78 -325
-126 -51 -24 -104 -47 -117 -50 -43 -11 -41 -28 2 -20 218 38 321 60 330 69 4
4 16 7 26 7 44 0 8 -18 -110 -54 -70 -22 -138 -46 -152 -53 -24 -12 -24 -12
10 -7 19 3 100 19 180 35 235 48 242 49 310 54 l65 5 -40 -14 c-22 -7 -76 -21
-120 -31 -83 -18 -165 -39 -225 -56 -19 -5 -93 -25 -165 -45 -71 -20 -141 -39
-155 -44 l-25 -8 25 -1 c14 0 43 4 65 9 22 6 63 15 90 20 43 8 257 53 380 80
22 5 54 9 70 8 19 0 23 -2 10 -5 -11 -2 -29 -8 -40 -13 -11 -5 -53 -16 -92
-24 -40 -9 -106 -23 -145 -32 -232 -50 -394 -89 -474 -114 -17 -6 -40 -10 -53
-10 -35 0 -15 -18 28 -25 42 -7 152 7 513 66 70 11 135 19 145 16 12 -3 10 -5
-7 -6 -15 0 -30 -5 -35 -10 -6 -5 -19 -11 -30 -13 -11 -3 41 -3 115 0 136 5
157 0 84 -17 -37 -9 -37 -9 -8 -10 52 -2 464 27 567 40 l97 12 0 90 0 89 -67
-6 c-38 -4 -118 -14 -179 -22 -131 -19 -189 -15 -101 6 31 7 62 19 68 27 6 7
20 13 31 13 11 0 27 4 37 9 9 5 46 14 82 20 35 6 78 13 96 17 l31 6 1 153 c0
152 0 153 -22 149 -22 -5 -22 -4 1 5 18 9 22 18 22 55 l0 44 -69 -13 c-77 -15
-134 -30 -204 -52 -67 -22 -70 -9 -6 21 62 28 39 35 -35 10 -64 -22 -69 -11
-9 21 l48 26 -41 -5 c-22 -3 -87 -21 -144 -40 -163 -54 -140 -36 70 56 97 42
144 68 125 68 -11 -1 -31 -7 -45 -15 -28 -16 -50 -19 -50 -7 0 9 77 53 232
132 70 36 128 69 128 74 0 4 -8 5 -17 1 -58 -25 -226 -85 -236 -85 -7 0 18 16
56 34 83 41 94 50 36 32 -45 -14 -279 -106 -334 -131 -16 -7 -56 -25 -88 -40
-103 -46 -85 -20 23 34 176 90 248 131 228 131 -4 0 -46 -18 -93 -40 -96 -44
-103 -47 -85 -25 7 8 16 15 21 15 16 0 261 164 250 168 -9 3 -61 -16 -105 -40
-12 -6 -22 -6 -29 1 -8 8 -8 11 1 11 7 0 12 4 12 9 0 5 -21 -1 -47 -14 -27
-12 -83 -37 -126 -55 -43 -18 -122 -55 -174 -82 -53 -27 -97 -47 -99 -45 -7 7
80 77 148 120 240 150 365 232 358 235 -5 2 -76 -31 -157 -72 -82 -42 -155
-76 -162 -76 -6 0 -47 -18 -90 -40 -43 -22 -80 -40 -83 -40 -3 0 -43 -21 -89
-47 -106 -59 -260 -165 -309 -213 -21 -21 -78 -59 -127 -85 -84 -46 -143 -84
-318 -202 l-80 -54 -3 118 c-1 65 1 119 5 120 5 2 67 42 138 89 72 47 135 88
140 91 11 5 -62 -66 -142 -139 -94 -86 -79 -83 89 17 50 30 93 55 96 55 3 0
13 6 21 14 9 7 27 17 41 21 14 4 -6 -15 -45 -44 -135 -99 -52 -55 288 153 82
50 174 108 205 128 81 52 96 47 21 -8 -79 -58 -74 -53 -66 -60 4 -4 12 -2 19
3 7 6 56 32 108 58 95 49 144 79 231 145 25 19 56 41 67 49 13 9 18 19 13 25
-6 7 23 32 81 71 50 33 126 88 171 123 69 54 77 62 54 62 -15 0 -27 -4 -27 -8
0 -17 -47 -31 -60 -19 -10 9 -12 8 -7 -5 4 -12 2 -15 -9 -11 -8 3 -26 -2 -40
-12 -42 -27 -37 -11 8 23 l42 32 -77 0 c-68 0 -81 -3 -115 -27 -78 -58 -252
-218 -248 -229 2 -6 -5 -17 -16 -25 -11 -8 -64 -47 -117 -87 -87 -67 -151
-109 -151 -99 0 2 49 46 110 97 60 52 108 95 106 98 -2 2 -23 -8 -45 -22 -46
-29 -52 -25 -19 13 l23 24 -35 -20 c-70 -41 -166 -99 -194 -118 -29 -19 -29
-19 -18 1 6 12 21 28 34 37 13 8 32 23 43 33 11 11 41 37 65 58 82 72 232 217
228 221 -2 2 -37 -18 -77 -45 -88 -61 -109 -65 -44 -9 109 93 115 99 99 99 -9
0 -16 -4 -16 -9 0 -5 -8 -12 -18 -15 -10 -4 -27 -15 -38 -25 -11 -10 -65 -51
-120 -92 -54 -40 -108 -81 -119 -90 -11 -9 -58 -47 -105 -85 -47 -37 -110 -89
-140 -115 -265 -229 -317 -275 -331 -288 -9 -9 -35 -33 -58 -54 -22 -21 -41
-43 -42 -50 -2 -37 -18 37 -18 87 -1 53 2 61 32 90 35 34 127 118 222 206 33
30 128 119 210 196 83 78 173 161 200 184 28 23 54 46 60 52 6 5 -56 8 -162 7
-133 -1 -175 -4 -184 -15 -15 -19 -30 -18 -23 1 4 10 0 15 -13 15 -21 0 -22
-1 -158 -160 -49 -58 -111 -129 -137 -158 l-47 -53 -4 -102 c-1 -56 -4 25 -5
181 -2 244 -4 283 -17 289 -9 3 -17 4 -18 2 -6 -9 13 -881 22 -1044 6 -99 14
-286 17 -415 3 -129 8 -238 10 -242 9 -14 -18 -19 -59 -12 -23 4 -37 9 -32 10
7 3 7 59 3 161 -5 87 -5 331 -2 543 4 249 2 427 -5 505 -14 148 -18 419 -7
463 l8 32 -1186 0 -1187 0 12 -23 c7 -12 20 -34 30 -48 17 -25 16 -39 -3 -39
-4 0 -8 5 -8 10 0 6 -15 31 -32 55 -33 44 -34 44 -93 45 l-59 0 64 -65 c35
-36 71 -65 79 -65 11 0 10 -4 -4 -14 -18 -13 -22 -11 -45 14 -14 15 -47 51
-73 79 l-48 51 -164 0 c-122 0 -165 -3 -165 -12 0 -9 -3 -9 -12 0 -8 8 -51 12
-127 12 l-116 0 100 -101 c55 -56 90 -96 78 -90 -46 23 -34 7 86 -113 68 -69
121 -129 117 -135 -7 -10 -209 182 -239 227 -8 13 -56 66 -107 118 l-91 94
-55 0 -54 0 0 -108z m1070 67 c0 -4 -7 -9 -15 -13 -8 -3 -15 -1 -15 3 0 5 -3
17 -6 26 -6 15 -4 15 15 4 11 -8 21 -17 21 -20z m3000 27 c0 -2 -7 -7 -16 -10
-8 -3 -12 -2 -9 4 6 10 25 14 25 6z m-2576 -58 c-36 -41 -104 -144 -104 -158
0 -8 28 -9 88 -4 l87 7 -73 -70 c-53 -51 -72 -76 -71 -94 0 -13 -2 -34 -6 -45
-5 -16 -2 -23 15 -27 l21 -5 -22 -44 c-27 -52 -50 -149 -56 -239 l-5 -66 59 5
c32 2 66 9 76 14 10 5 21 8 23 6 5 -5 -117 -127 -140 -140 -15 -8 -24 -78 -11
-78 3 0 22 10 43 23 61 37 90 47 142 47 28 0 50 -1 50 -3 0 -20 -52 -102 -88
-139 -47 -49 -51 -71 -7 -48 21 11 32 11 65 0 57 -19 66 -33 47 -72 -19 -39
-68 -87 -162 -158 -67 -50 -95 -83 -82 -96 3 -4 25 10 48 30 31 26 45 33 51
24 12 -20 10 -26 -11 -33 -26 -8 -95 -79 -131 -136 -33 -50 -42 -89 -22 -96 6
-3 12 3 12 12 0 23 34 69 101 138 56 56 79 69 79 44 0 -9 19 -13 68 -13 89 0
94 -4 74 -57 -9 -23 -19 -44 -23 -47 -3 -3 -16 -26 -27 -51 -12 -25 -39 -70
-61 -99 -45 -60 -61 -108 -40 -121 8 -4 38 -11 66 -15 56 -7 89 7 79 33 -3 7
-1 13 3 13 5 0 16 2 23 5 9 4 20 -7 31 -30 l17 -35 70 0 c69 0 107 -11 122
-34 14 -21 8 -63 -12 -81 -26 -23 -25 -34 1 -43 18 -7 2 -18 -92 -65 -104 -51
-258 -138 -327 -185 -15 -10 -50 -34 -78 -53 -72 -48 -116 -87 -112 -99 2 -6
32 11 68 38 36 27 88 61 115 76 28 16 57 34 65 41 61 52 587 324 770 397 136
55 222 72 246 48 21 -21 128 -42 182 -36 28 4 52 4 52 1 0 -2 -14 -12 -32 -21
-94 -49 -158 -204 -128 -313 11 -41 60 -97 98 -112 23 -9 22 -29 -1 -29 -13 0
-206 -77 -247 -99 -53 -28 -137 -75 -145 -81 -14 -11 -327 -167 -359 -180 -15
-6 -30 -19 -33 -30 -3 -11 -10 -20 -16 -20 -9 0 -115 -47 -159 -71 -10 -5 -23
-9 -31 -9 -7 0 -29 -9 -50 -20 -20 -11 -44 -20 -52 -20 -13 0 -155 -78 -247
-136 -21 -13 -40 -24 -43 -24 -2 0 -34 -18 -70 -40 -36 -22 -68 -40 -71 -40
-4 0 -40 -21 -81 -46 -40 -26 -75 -45 -77 -43 -11 13 -40 125 -67 262 l-31
157 20 43 c23 49 127 151 236 232 42 31 76 62 76 69 0 7 3 28 6 46 l7 32 -33
-17 c-28 -15 -34 -15 -47 -3 -12 13 -9 19 24 49 54 49 64 74 55 134 -7 47 -9
50 -37 50 -42 0 -43 29 -6 103 21 41 28 69 25 88 -3 15 0 38 7 51 15 28 4 42
-19 25 -9 -6 -36 -24 -60 -38 -38 -23 -45 -25 -58 -12 -23 23 0 108 50 181 37
54 42 68 38 105 -2 23 -6 42 -9 42 -2 0 -19 -11 -36 -24 -35 -27 -82 -48 -90
-40 -5 6 69 151 89 175 8 8 14 28 14 42 0 36 -22 35 -71 -4 -42 -33 -69 -33
-69 0 0 33 30 103 61 143 30 38 38 78 17 78 -7 0 -47 -27 -88 -61 -41 -33 -90
-67 -108 -75 -29 -13 -35 -13 -56 3 -38 29 -46 57 -31 107 19 62 36 92 95 165
85 104 36 99 -80 -9 -33 -30 -67 -57 -112 -88 -25 -17 -49 -37 -51 -44 -3 -7
-6 -3 -6 8 -1 14 28 50 85 105 47 46 91 85 98 87 7 2 19 14 26 28 12 21 11 26
-5 38 -18 13 -18 15 14 51 18 20 31 39 29 41 -6 6 -72 -20 -98 -38 -36 -26
-40 -23 -34 25 9 61 -15 114 -60 132 -40 17 -123 20 -160 5 -40 -15 -115 -89
-158 -154 -21 -33 -38 -52 -38 -43 0 9 16 41 35 71 19 30 35 61 35 68 0 9 3 9
10 -2 8 -12 10 -11 10 8 0 13 6 22 15 22 9 0 19 10 24 23 5 12 21 39 35 60 34
49 23 48 -32 -4 -9 -9 -59 -40 -110 -70 -50 -29 -92 -56 -92 -60 0 -4 -11 -2
-25 4 -33 16 -32 35 2 49 30 13 93 67 93 80 0 8 113 167 157 221 23 29 117
116 211 197 29 24 75 57 104 72 28 15 56 32 61 37 6 6 19 11 29 11 22 0 76 26
97 48 10 10 16 11 19 3 7 -20 70 -12 134 18 61 28 157 46 228 43 19 -1 42 2
50 8 24 16 25 12 4 -12z m2430 -70 c-20 -18 -42 -38 -48 -44 -6 -5 -38 -34
-71 -63 -33 -30 -100 -93 -150 -140 -148 -142 -158 -141 -26 1 30 31 60 66 67
77 8 11 56 52 107 90 50 39 105 82 122 95 44 36 43 23 -1 -16z m-3204 -141
c-8 -9 -24 4 -65 53 -15 17 -7 14 27 -11 25 -19 43 -38 38 -42z m3720 39 c0
-3 -4 -8 -10 -11 -5 -3 -10 -1 -10 4 0 6 5 11 10 11 6 0 10 -2 10 -4z m-1735
-183 c22 -6 74 -27 116 -47 65 -32 82 -46 126 -104 86 -116 121 -192 139 -306
30 -186 1 -339 -92 -491 -46 -74 -48 -80 -60 -195 -17 -167 -41 -201 -172
-250 -98 -37 -199 -4 -268 87 -25 33 -28 46 -29 108 0 72 24 168 54 215 9 14
57 66 107 115 50 50 104 110 119 135 26 41 28 53 29 147 l1 102 -43 44 c-65
66 -135 97 -219 97 -89 0 -203 -29 -203 -52 0 -6 7 -8 15 -4 20 7 19 -3 -2
-26 -13 -14 -18 -46 -23 -131 -8 -150 -20 -175 -101 -217 -118 -60 -294 -50
-353 20 -63 76 -90 202 -74 350 12 106 43 164 131 247 52 48 81 65 172 102 61
24 133 50 160 57 59 15 407 13 470 -3z m-2305 -104 c0 -5 7 -9 15 -9 8 0 15
-4 15 -8 0 -17 -26 -8 -43 14 -15 19 -15 23 -2 18 8 -3 15 -10 15 -15z m3010
-93 c0 -3 -4 -8 -10 -11 -5 -3 -10 -1 -10 4 0 6 5 11 10 11 6 0 10 -2 10 -4z
m-2663 -192 c22 -22 24 -31 19 -67 -4 -29 -14 -48 -33 -62 -15 -11 -60 -51
-101 -90 -41 -38 -80 -74 -88 -78 -19 -11 58 122 111 193 69 89 64 93 -45 35
-19 -10 -52 -27 -72 -38 -20 -10 -42 -25 -49 -33 -13 -16 -29 -19 -29 -5 0 4
41 45 90 90 82 73 95 81 131 81 30 0 47 -7 66 -26z m-357 -199 c-7 -9 -15 -13
-18 -10 -3 2 1 11 8 20 7 9 15 13 18 10 3 -2 -1 -11 -8 -20z m3540 -15 c0 -5
-4 -10 -10 -10 -5 0 -10 5 -10 10 0 6 5 10 10 10 6 0 10 -4 10 -10z m377 -146
c-3 -3 -12 -4 -19 -1 -8 3 -5 6 6 6 11 1 17 -2 13 -5z m73 -228 c0 -3 -4 -8
-10 -11 -5 -3 -10 -1 -10 4 0 6 5 11 10 11 6 0 10 -2 10 -4z m-663 -82 c-3 -3
-12 -4 -19 -1 -8 3 -5 6 6 6 11 1 17 -2 13 -5z m-1967 -101 c0 -35 -38 -128
-65 -158 -14 -14 -23 -30 -20 -35 8 -13 -34 -37 -77 -43 -28 -4 -38 -2 -38 8
0 7 6 15 13 18 7 2 23 25 35 51 13 25 31 51 40 58 18 13 82 138 82 160 1 22
29 -36 30 -59z m1594 -157 c38 -8 72 -20 76 -26 4 -7 10 -40 14 -73 8 -81 25
-171 43 -230 9 -27 11 -52 7 -57 -5 -4 -65 -22 -134 -40 -69 -18 -134 -36
-145 -41 -30 -14 -115 -28 -115 -19 0 4 9 19 20 33 38 48 22 141 -38 224 -40
56 -232 133 -232 93 0 -5 12 -10 28 -10 15 0 59 -20 97 -43 58 -35 74 -51 94
-92 27 -55 31 -114 13 -181 -12 -41 -12 -41 -94 -64 -123 -33 -182 -35 -248
-8 -46 19 -57 29 -66 58 -14 42 -2 155 20 199 16 30 64 82 110 116 14 11 24
25 22 32 -3 7 11 17 31 24 20 6 56 31 79 56 32 32 55 46 86 52 71 14 258 12
332 -3z m-847 -72 c-3 -3 -12 -4 -19 -1 -8 3 -5 6 6 6 11 1 17 -2 13 -5z
m2300 -47 c197 -26 70 -38 -157 -15 -110 11 -119 14 -75 19 81 10 134 9 232
-4z m-4098 -257 c12 -10 31 -50 31 -64 0 -21 -5 -23 -137 -57 -130 -34 -152
-40 -233 -64 -99 -29 -194 -52 -240 -59 -45 -6 -45 -6 -16 9 15 8 34 15 42 15
7 0 35 7 61 15 26 8 71 22 98 30 77 23 245 75 290 91 37 12 38 13 11 14 -15 0
-58 -7 -95 -15 -36 -8 -102 -22 -146 -31 -44 -9 -133 -29 -198 -45 -65 -16
-126 -29 -135 -29 -24 0 86 52 128 60 l35 7 -25 12 c-22 10 -19 11 25 6 33 -3
45 -2 35 5 -8 5 -12 10 -10 12 3 2 70 20 150 40 80 20 181 47 225 60 71 21 81
22 89 8 5 -8 12 -17 15 -20z m3574 33 c-7 -2 -19 -2 -25 0 -7 3 -2 5 12 5 14
0 19 -2 13 -5z m-168 -238 c52 -9 107 -20 121 -25 14 -6 41 -10 60 -10 47 0
40 -24 -7 -28 -19 -2 -65 -13 -104 -24 -38 -11 -97 -24 -129 -29 -33 -5 -77
-14 -98 -20 -21 -5 -61 -11 -88 -12 -44 -2 -50 -4 -48 -22 2 -14 11 -20 33
-22 59 -2 136 -16 141 -24 3 -5 14 -9 25 -9 42 0 147 -57 239 -130 57 -45 170
-188 170 -215 0 -13 -169 32 -285 76 -112 42 -144 56 -165 70 -14 9 -50 28
-81 43 -31 14 -68 37 -83 51 -15 14 -31 25 -37 25 -20 0 -7 -51 22 -85 l32
-36 14 -200 c9 -135 18 -210 28 -230 16 -30 70 -59 109 -59 20 1 20 2 4 14
-10 7 -18 18 -18 25 0 23 33 9 104 -44 40 -30 79 -55 86 -55 7 0 11 -2 8 -5
-2 -3 -65 2 -139 11 -158 19 -283 14 -385 -16 -59 -17 -78 -18 -120 -9 -27 6
-63 13 -80 16 l-31 5 13 46 c23 75 18 138 -12 168 -23 24 -26 25 -43 10 -17
-16 -18 -13 -25 45 -3 34 -6 97 -6 139 l0 78 38 7 c20 4 42 11 49 17 6 5 38
13 70 18 32 4 70 11 84 15 l26 6 12 -158 c7 -87 13 -203 14 -258 2 -89 4 -100
21 -103 17 -4 18 1 11 55 -4 32 -9 94 -10 138 -7 158 -17 310 -21 327 -4 13 5
23 30 35 19 9 33 20 31 24 -6 8 -49 -1 -118 -25 -26 -9 -63 -16 -82 -16 -19 0
-60 -7 -92 -17 -87 -24 -156 -28 -172 -9 -18 21 -31 20 -31 -2 0 -20 48 -52
79 -52 11 0 24 -8 29 -17 6 -10 13 -99 16 -198 4 -99 9 -193 12 -210 l5 -30
-36 40 c-29 33 -37 37 -45 25 -5 -8 -10 -30 -10 -48 0 -22 -4 -32 -12 -30 -18
6 -68 108 -68 139 0 49 -26 42 -81 -21 -51 -59 -79 -75 -79 -45 0 25 -13 18
-62 -34 -26 -27 -80 -69 -121 -94 -41 -25 -94 -59 -117 -76 -24 -17 -45 -29
-47 -27 -5 5 -31 378 -36 513 l-3 112 25 -6 c14 -4 51 -7 82 -7 46 -1 62 4 93
27 20 16 34 32 31 36 -2 5 -28 2 -57 -5 -85 -22 -99 -21 -267 32 -25 8 -54 14
-65 14 -27 0 -12 12 54 39 30 13 75 33 100 44 53 23 196 85 225 96 68 28 174
65 265 91 58 17 143 44 190 59 171 57 195 61 355 70 255 13 359 12 460 -4z
m735 5 c0 -5 -9 -10 -20 -10 -11 0 -20 5 -20 10 0 6 9 10 20 10 11 0 20 -4 20
-10z m90 -18 c0 -5 -13 -7 -30 -4 -16 2 -30 6 -30 8 0 2 14 4 30 4 17 0 30 -4
30 -8z m-4683 -48 c-3 -3 -12 -4 -19 -1 -8 3 -5 6 6 6 11 1 17 -2 13 -5z m591
-46 c-3 -7 -16 -15 -31 -19 -16 -4 -25 -3 -21 2 3 5 12 9 20 9 8 0 14 5 14 10
0 6 5 10 11 10 6 0 9 -5 7 -12z m3730 -263 c-3 -21 -5 -22 -21 -11 -15 11 -16
18 -7 42 10 26 12 27 21 11 6 -10 9 -28 7 -42z m-2591 -51 c-3 -3 -12 -4 -19
-1 -8 3 -5 6 6 6 11 1 17 -2 13 -5z m2548 -44 l40 -20 -40 6 c-22 4 -49 13
-60 20 -19 14 -19 14 0 14 11 -1 38 -10 60 -20z m-2595 -10 c-8 -5 -22 -9 -30
-9 -10 0 -8 3 5 9 27 12 43 12 25 0z m-1000 -80 c8 -42 7 -56 -3 -61 -7 -4
-24 -18 -38 -31 -14 -13 -50 -45 -80 -71 -30 -27 -110 -104 -179 -170 -69 -67
-115 -110 -102 -96 27 30 28 41 5 32 -10 -4 20 31 67 78 77 76 126 129 200
213 l25 29 -25 -13 c-14 -7 -38 -22 -53 -33 -58 -40 -35 -6 60 89 54 55 101
97 105 94 4 -3 12 -30 18 -60z m915 40 c-16 -11 -37 -20 -45 -20 -8 0 1 9 20
19 46 26 63 26 25 1z m2696 -37 c17 -8 33 -21 35 -28 6 -15 211 -139 285 -173
27 -12 49 -29 52 -41 7 -29 -2 -33 -32 -12 -26 19 -107 59 -243 120 -85 37
-92 54 -10 24 22 -9 13 13 -10 24 -13 6 -38 23 -56 39 -18 16 -52 39 -75 52
-41 23 -41 23 -9 17 18 -4 46 -14 63 -22z m-3581 -142 c0 -11 -10 -31 -22 -46
-29 -33 -274 -245 -284 -245 -4 0 40 48 98 108 58 59 124 128 148 155 46 51
60 58 60 28z m2420 -136 c0 -19 -4 -35 -10 -35 -11 0 -13 30 -4 54 10 25 14
19 14 -19z m-2406 -25 c-11 -8 -61 -62 -113 -120 -132 -149 -131 -147 -199
-235 -34 -44 -77 -93 -97 -108 -19 -15 -42 -41 -50 -57 -9 -17 -21 -30 -28
-30 -9 0 -8 3 1 9 8 4 13 12 12 16 -1 4 6 17 17 28 10 12 47 60 83 106 87 113
183 226 294 345 70 76 92 95 95 81 2 -11 -5 -26 -15 -35z m673 -3 c2 -28 5
-63 8 -76 5 -21 3 -23 -19 -19 -41 8 -52 -16 -20 -41 15 -12 25 -24 21 -27
-11 -11 -47 17 -63 49 -23 45 -54 77 -76 77 -25 0 -17 -26 29 -98 19 -30 41
-72 50 -95 9 -23 20 -47 25 -54 19 -25 10 -76 -25 -144 -21 -39 -37 -76 -37
-84 0 -8 -18 -32 -41 -53 -40 -39 -41 -39 -62 -21 -12 10 -51 42 -87 71 -78
65 -147 151 -156 196 -3 18 -10 35 -15 38 -15 9 -10 54 6 54 8 0 38 16 65 35
28 20 55 33 60 30 6 -4 10 0 10 8 0 7 19 24 41 38 55 32 80 49 120 80 39 30
139 88 154 88 6 1 11 -23 12 -52z m937 -2 c9 -36 9 -39 -3 -43 -13 -4 -34 45
-25 59 10 16 22 10 28 -16z m1356 -140 c77 -4 150 -14 191 -26 37 -10 73 -17
81 -14 20 8 34 -12 41 -60 4 -27 3 -35 -3 -25 -5 8 -10 23 -10 33 0 22 -8 21
-45 -3 -16 -11 -45 -20 -63 -20 -18 0 -60 -9 -94 -21 -44 -15 -107 -23 -215
-30 l-154 -9 -59 30 c-33 17 -80 33 -105 37 -84 11 -44 48 85 79 30 7 80 19
110 27 30 9 69 14 85 12 17 -3 86 -7 155 -10z m-3306 -107 c-10 -13 -22 -25
-25 -28 -4 -3 -24 -26 -45 -51 -48 -57 -122 -123 -106 -94 14 26 176 195 187
195 4 0 0 -10 -11 -22z m3707 -14 c21 -22 21 -24 4 -18 -20 8 -35 23 -35 37 0
12 5 9 31 -19z m-126 -4 c3 -5 1 -10 -4 -10 -6 0 -11 5 -11 10 0 6 2 10 4 10
3 0 8 -4 11 -10z m-735 -9 c0 -6 -4 -13 -10 -16 -5 -3 -10 1 -10 9 0 9 5 16
10 16 6 0 10 -4 10 -9z m97 -17 c-3 -3 -12 -4 -19 -1 -8 3 -5 6 6 6 11 1 17
-2 13 -5z m674 -67 c-13 -13 -15 21 -3 50 6 15 8 13 10 -11 2 -16 -1 -33 -7
-39z m-39 21 c-7 -7 -12 -8 -12 -2 0 14 12 26 19 19 2 -3 -1 -11 -7 -17z m-5
-60 c-3 -8 -6 -5 -6 6 -1 11 2 17 5 13 3 -3 4 -12 1 -19z m30 -25 c-3 -10 -5
-4 -5 12 0 17 2 24 5 18 2 -7 2 -21 0 -30z m-552 7 c25 -11 -1 -11 -35 0 -20
6 -21 8 -5 8 11 0 29 -3 40 -8z m246 -61 c-16 -6 -28 -6 -35 1 -7 7 1 10 25 9
32 0 33 -1 10 -10z m189 -44 c0 -14 -2 -25 -4 -25 -2 0 -6 11 -8 25 -3 14 -1
25 3 25 5 0 9 -11 9 -25z m-2790 -93 c19 -18 42 -32 51 -32 32 0 28 -15 -13
-57 -36 -36 -40 -45 -28 -53 8 -6 32 -8 53 -4 20 3 37 3 37 0 0 -3 -14 -34
-31 -70 l-31 -64 -33 21 c-28 18 -31 24 -19 33 18 14 18 38 0 53 -23 20 -54
112 -59 179 l-5 64 21 -19 c12 -11 38 -34 57 -51z m2690 64 c0 -3 -13 -11 -30
-20 -16 -8 -30 -11 -30 -7 0 4 10 13 23 19 24 12 37 14 37 8z m134 -21 c-6
-14 -64 -55 -78 -55 -4 0 -1 7 8 15 8 8 19 15 24 15 5 0 17 9 27 20 22 24 26
25 19 5z m-3691 -10 c-3 -9 -8 -14 -10 -11 -3 3 -2 9 2 15 9 16 15 13 8 -4z
m3567 -29 c0 -9 -30 -14 -35 -6 -4 6 3 10 14 10 12 0 21 -2 21 -4z m13 -33
c-7 -2 -19 -2 -25 0 -7 3 -2 5 12 5 14 0 19 -2 13 -5z m-43 -13 c0 -5 -5 -10
-11 -10 -5 0 -7 5 -4 10 3 6 8 10 11 10 2 0 4 -4 4 -10z m-1284 -90 c108 -92
163 -145 164 -156 0 -7 -12 -19 -26 -29 -35 -22 -102 -15 -126 14 -21 27 -27
26 -62 -4 -16 -14 -32 -25 -36 -25 -11 0 -80 184 -80 214 0 13 48 33 86 35 12
1 47 -21 80 -49z m-2366 -124 c0 -2 -7 -9 -15 -16 -13 -11 -14 -10 -9 4 5 14
24 23 24 12z m2310 -112 c0 -8 -5 -12 -10 -9 -6 4 -8 11 -5 16 9 14 15 11 15
-7z m-1343 -15 c7 -7 8 -18 3 -28 -5 -9 -16 -37 -26 -63 -14 -41 -34 -64 -34
-40 0 4 -3 18 -6 32 -5 20 -4 22 6 10 9 -12 10 -9 5 16 -11 57 22 103 52 73z
m1736 -47 c37 -24 101 -55 219 -105 58 -25 83 -81 83 -187 0 -47 -6 -106 -14
-131 -13 -46 -13 -46 -64 -52 -58 -7 -67 -1 -67 54 0 71 -42 78 -95 17 -52
-61 -60 -78 -37 -78 10 0 32 19 50 45 17 25 36 45 42 45 6 0 10 -32 10 -81 0
-70 2 -80 17 -77 9 2 16 8 16 13 -3 23 22 35 73 35 56 0 85 17 98 57 9 28 50
70 64 66 17 -6 15 -95 -3 -119 -8 -10 -15 -26 -15 -35 0 -13 -20 -18 -104 -27
-172 -17 -204 -4 -343 137 -112 113 -230 269 -284 373 -27 53 -25 57 29 47 98
-19 164 -63 193 -129 23 -54 63 -98 74 -81 3 6 0 35 -8 64 -29 99 -31 136 -10
157 24 25 28 25 76 -8z m578 -102 c-10 -46 -42 -87 -60 -76 -5 4 -15 23 -20
43 -9 30 -7 40 5 54 13 14 67 29 82 23 1 -1 -2 -21 -7 -44z m-101 -58 c0 -24
19 -42 45 -42 20 0 19 -4 -17 -77 -21 -43 -38 -86 -38 -95 0 -37 -18 -16 -39
45 -25 71 -25 70 -23 118 2 30 6 38 27 43 14 4 25 11 25 16 0 6 5 10 10 10 6
0 10 -8 10 -18z m-94 -156 c9 -19 8 -25 -8 -35 -26 -16 -35 -7 -30 29 5 36 23
39 38 6z m-1830 -10 c0 -14 -5 -21 -9 -17 -4 4 -5 15 -1 24 9 24 12 21 10 -7z
m309 -141 c32 -32 32 -49 2 -41 -15 3 -43 -4 -76 -20 -29 -15 -54 -25 -56 -22
-2 2 1 22 7 45 10 40 11 41 37 32 22 -9 29 -7 41 10 8 11 16 20 17 21 1 0 14
-11 28 -25z m184 -65 c22 -6 40 -6 53 1 14 7 36 4 86 -12 98 -32 105 -41 132
-159 7 -30 15 -61 18 -68 6 -16 -67 -7 -115 14 -66 30 -179 76 -210 87 -28 9
-33 15 -33 43 0 24 26 104 34 104 1 0 16 -4 35 -10z"/>
<path d="M1610 3191 c-17 -32 -12 -43 17 -39 31 3 44 35 21 49 -20 13 -26 11
-38 -10z"/>
<path d="M619 4283 c-13 -17 -13 -17 6 -3 11 8 22 16 24 17 2 2 0 3 -6 3 -6 0
-17 -8 -24 -17z"/>
<path d="M1450 1844 c0 -8 5 -12 10 -9 6 3 10 10 10 16 0 5 -4 9 -10 9 -5 0
-10 -7 -10 -16z"/>
<path d="M3415 5108 c-2 -7 -6 -53 -10 -102 -7 -105 -15 -107 106 25 l81 89
-86 0 c-61 0 -88 -4 -91 -12z"/>
<path d="M4163 5080 c-29 -21 -66 -46 -82 -54 -30 -16 -119 -86 -202 -160 -25
-23 -79 -70 -120 -106 -41 -36 -114 -103 -164 -151 -49 -47 -110 -104 -135
-127 -57 -54 -41 -54 24 0 48 39 238 201 262 223 6 6 29 26 50 45 21 20 57 46
79 59 59 36 266 204 310 252 21 24 40 37 44 31 4 -6 15 -3 30 9 16 13 19 19 8
19 -8 0 -18 -6 -21 -12 -5 -10 -7 -10 -12 0 -8 18 -14 16 -71 -28z"/>
<path d="M4508 5113 c7 -3 16 -2 19 1 4 3 -2 6 -13 5 -11 0 -14 -3 -6 -6z"/>
<path d="M4533 5091 c-42 -36 -42 -48 0 -22 18 11 46 27 62 35 l30 16 -30 0
c-18 -1 -43 -12 -62 -29z"/>
<path d="M5039 5102 c-37 -24 -170 -144 -165 -149 6 -7 125 36 187 68 55 27
59 32 59 64 0 32 -3 35 -27 34 -16 0 -40 -8 -54 -17z"/>
<path d="M3323 5055 c0 -22 2 -30 4 -17 2 12 2 30 0 40 -3 9 -5 -1 -4 -23z"/>
<path d="M5025 4939 c-103 -53 -354 -223 -355 -241 0 -4 27 4 60 18 33 13 64
24 69 24 22 0 243 107 294 142 22 16 27 27 27 59 0 21 -3 39 -7 39 -5 0 -44
-19 -88 -41z"/>
<path d="M5085 4504 c-178 -81 -194 -93 -69 -51 82 27 108 41 103 54 -3 7 -15
5 -34 -3z"/>
<path d="M165 3219 c-77 -3 -146 -7 -152 -8 -9 -1 -13 -23 -13 -76 0 -68 2
-75 20 -75 22 0 27 15 8 23 -7 3 11 6 41 6 29 1 70 5 90 11 20 5 73 17 118 27
58 12 78 20 67 26 -8 5 -32 6 -53 2 -22 -3 -41 -2 -44 2 -5 8 177 43 228 44
11 0 34 6 50 14 27 12 18 13 -95 12 -69 0 -188 -4 -265 -8z"/>
<path d="M175 2623 c-29 -6 -115 -33 -148 -45 -24 -9 -39 -38 -19 -38 8 0 137
52 187 75 29 14 21 17 -20 8z"/>
<path d="M38 2523 c-21 -8 -38 -20 -38 -25 0 -6 8 -7 17 -3 10 4 26 10 36 12
9 3 17 9 17 13 0 5 8 11 18 13 12 3 12 5 2 5 -8 1 -32 -6 -52 -15z"/>
<path d="M76 2432 c-38 -15 -71 -33 -74 -40 -6 -19 6 -15 93 28 92 45 82 51
-19 12z"/>
<path d="M96 2154 c-28 -13 -60 -24 -73 -24 -21 0 -23 -4 -23 -54 l0 -54 39
21 c39 22 46 43 10 32 -39 -13 -17 11 51 54 39 24 70 45 70 47 0 9 -29 1 -74
-22z"/>
<path d="M63 2023 c-35 -21 -63 -43 -63 -50 0 -7 2 -13 5 -13 6 0 110 74 130
91 22 21 -14 6 -72 -28z"/>
<path d="M4534 1812 c2 -4 31 -25 63 -47 32 -22 72 -50 88 -62 17 -13 35 -27
40 -31 74 -56 373 -242 389 -242 19 0 -1 29 -37 55 -52 36 -186 126 -209 140
-10 5 -56 34 -102 63 -47 28 -87 52 -89 52 -3 0 -35 18 -71 40 -65 40 -82 47
-72 32z"/>
<path d="M4581 1687 c126 -114 247 -200 406 -290 82 -47 127 -62 87 -29 -12 9
-39 31 -60 49 -65 53 -147 118 -179 140 -42 29 -206 123 -215 123 -4 0 -13 6
-19 14 -6 8 -22 16 -34 19 -18 5 -15 0 14 -26z"/>
<path d="M1813 1437 c-162 -95 -241 -200 -99 -131 16 8 31 12 33 10 2 -2 -27
-33 -64 -69 -75 -73 -110 -122 -93 -132 6 -4 18 -4 28 0 13 5 14 8 3 15 -19
11 32 75 113 142 69 57 80 74 45 65 -13 -3 -42 -9 -64 -12 l-40 -7 60 45 c33
24 86 58 117 74 32 17 55 33 51 37 -9 9 -11 8 -90 -37z"/>
<path d="M1719 1171 c-13 -10 -31 -16 -39 -14 -12 4 -12 3 -2 -5 11 -7 6 -20
-21 -63 -38 -60 -52 -105 -37 -114 6 -3 18 2 28 11 16 17 17 15 23 -47 8 -73
22 -117 56 -171 13 -21 23 -42 23 -47 0 -11 159 -182 199 -216 29 -23 71 -38
71 -24 0 5 -8 13 -17 16 -10 4 -63 52 -118 107 -80 80 -110 119 -144 185 -52
99 -66 192 -37 236 20 31 5 33 -35 4 -58 -41 -17 46 53 114 47 45 45 66 -3 28z"/>
<path d="M23 860 c-16 -12 -23 -29 -23 -52 l1 -33 25 48 c14 27 24 50 22 52
-2 2 -13 -5 -25 -15z"/>
<path d="M1884 325 c-19 -14 -19 -14 2 -15 11 0 29 7 40 15 19 14 19 14 -2 15
-11 0 -29 -7 -40 -15z"/>
<path d="M5088 329 c-16 -4 -28 -5 -28 -2 0 3 -6 1 -13 -5 -11 -9 -92 -35
-142 -45 -5 -2 -16 -6 -22 -10 -7 -5 -17 -6 -22 -2 -5 3 -12 1 -16 -5 -3 -5
-16 -10 -29 -10 -12 0 -26 -3 -30 -7 -3 -4 -13 -8 -21 -9 -8 -1 -36 -9 -62
-17 -26 -8 -61 -19 -78 -23 -16 -4 -32 -8 -35 -9 -56 -17 -98 -29 -110 -31 -8
-2 -62 -15 -120 -30 -58 -14 -134 -32 -170 -39 -36 -7 -66 -14 -67 -15 -5 -4
-18 -6 -88 -14 -38 -4 -79 -11 -90 -15 -73 -30 -73 -30 -15 -30 54 -1 211 23
230 34 5 3 60 14 122 25 125 21 215 42 298 70 30 10 73 22 95 26 22 4 45 10
50 14 6 4 30 11 55 15 24 4 51 11 60 16 8 4 38 14 65 22 197 57 219 67 213 89
-2 11 -10 13 -30 7z"/>
<path d="M1296 245 c-11 -27 -23 -54 -27 -60 -6 -9 -59 -162 -59 -171 0 -2 16
-4 35 -4 32 0 35 3 40 38 4 20 11 50 16 66 5 16 9 43 9 60 0 18 4 36 8 41 5 6
6 26 2 45 l-6 35 -18 -50z"/>
<path d="M3721 174 c0 -11 3 -14 6 -6 3 7 2 16 -1 19 -3 4 -6 -2 -5 -13z"/>
<path d="M2148 113 c7 -3 16 -2 19 1 4 3 -2 6 -13 5 -11 0 -14 -3 -6 -6z"/>
<path d="M1448 40 c-3 -20 0 -30 9 -30 8 0 13 12 13 30 0 39 -16 39 -22 0z"/>
</g>
</svg>
